<?xml version="1.0" encoding="UTF-8"?>
<svg width="700pt" height="700pt" version="1.1" viewBox="0 0 700 700" xmlns="http://www.w3.org/2000/svg">
 <g>
  <path d="m350 560c-154.39 0-280-125.61-280-280s125.61-280 280-280 280 125.61 280 280-125.61 280-280 280zm0-527.07c-136.25 0-247.07 110.81-247.07 247.07s110.81 247.07 247.07 247.07 247.07-110.81 247.07-247.07-110.81-247.07-247.07-247.07z"/>
  <path d="m442.3 347.83c6.8242 6.8242 6.8242 17.922-0.035156 24.746-6.8242 6.8242-17.922 6.7891-24.746-0.035157l-159.81-160.37c-6.8242-6.8633-6.8242-17.922 0.035156-24.781 6.8633-6.7891 17.922-6.7891 24.746 0.070313z"/>
  <path d="m257.7 347.83c-6.8242 6.8242-6.8242 17.922 0.035156 24.746 6.8242 6.8242 17.922 6.7891 24.746-0.035157l159.77-160.41c6.8242-6.8594 6.8242-17.922-0.035156-24.781-6.8594-6.75-17.883-6.75-24.707 0.10938z"/>
 </g>
</svg>
