<?xml version="1.0" encoding="UTF-8"?>
<svg width="700pt" height="700pt" version="1.1" viewBox="0 0 700 700" xmlns="http://www.w3.org/2000/svg" xmlns:xlink="http://www.w3.org/1999/xlink">
 <defs>
  <symbol id="z" overflow="visible">
   <path d="m4.2031-0.25c-0.21094 0.11719-0.43359 0.19922-0.67188 0.25-0.24219 0.0625-0.48438 0.09375-0.73438 0.09375-0.76172 0-1.3672-0.21094-1.8125-0.64062-0.44922-0.42578-0.67188-1.0039-0.67188-1.7344 0-0.73828 0.22266-1.3164 0.67188-1.7344 0.44531-0.42578 1.0508-0.64062 1.8125-0.64062 0.25 0 0.49219 0.03125 0.73438 0.09375 0.23828 0.054688 0.46094 0.13281 0.67188 0.23438v0.95312c-0.21875-0.14453-0.4375-0.25391-0.65625-0.32812-0.21094-0.070313-0.42969-0.10938-0.65625-0.10938-0.42969 0-0.76172 0.13672-1 0.40625-0.24219 0.27344-0.35938 0.64844-0.35938 1.125 0 0.46875 0.11719 0.83984 0.35938 1.1094 0.23828 0.27344 0.57031 0.40625 1 0.40625 0.22656 0 0.44531-0.03125 0.65625-0.09375 0.21875-0.070313 0.4375-0.1875 0.65625-0.34375z"/>
  </symbol>
  <symbol id="c" overflow="visible">
   <path d="m3.0781-2.5c-0.09375-0.039062-0.1875-0.070312-0.28125-0.09375-0.09375-0.019531-0.19531-0.03125-0.29688-0.03125-0.28125 0-0.5 0.089844-0.65625 0.26562-0.14844 0.17969-0.21875 0.4375-0.21875 0.78125v1.5781h-1.0938v-3.4375h1.0938v0.5625c0.14453-0.21875 0.30469-0.37891 0.48438-0.48438 0.1875-0.10156 0.40625-0.15625 0.65625-0.15625h0.125c0.039063 0 0.10156 0.007813 0.1875 0.015625z"/>
  </symbol>
  <symbol id="a" overflow="visible">
   <path d="m3.9531-1.7344v0.32812h-2.5625c0.019531 0.25 0.10938 0.44531 0.26562 0.57812 0.16406 0.125 0.39453 0.1875 0.6875 0.1875 0.22656 0 0.46094-0.03125 0.70312-0.09375 0.23828-0.070313 0.48828-0.17969 0.75-0.32812v0.85938c-0.26172 0.09375-0.52344 0.16797-0.78125 0.21875-0.26172 0.050781-0.52344 0.078125-0.78125 0.078125-0.625 0-1.1094-0.15625-1.4531-0.46875-0.34375-0.32031-0.51562-0.76953-0.51562-1.3438 0-0.5625 0.16406-1 0.5-1.3125 0.34375-0.32031 0.8125-0.48438 1.4062-0.48438 0.53906 0 0.97266 0.16406 1.2969 0.48438 0.32031 0.32422 0.48438 0.75781 0.48438 1.2969zm-1.125-0.35938c0-0.20703-0.0625-0.375-0.1875-0.5-0.11719-0.125-0.27344-0.1875-0.46875-0.1875-0.21875 0-0.39844 0.0625-0.53125 0.1875-0.125 0.11719-0.20312 0.28125-0.23438 0.5z"/>
  </symbol>
  <symbol id="l" overflow="visible">
   <path d="m2.0625-1.5469c-0.23047 0-0.40234 0.042969-0.51562 0.125-0.11719 0.074219-0.17188 0.1875-0.17188 0.34375 0 0.13672 0.046875 0.24609 0.14062 0.32812 0.09375 0.074219 0.22266 0.10938 0.39062 0.10938 0.20703 0 0.37891-0.070313 0.51562-0.21875 0.14453-0.14453 0.21875-0.33203 0.21875-0.5625v-0.125zm1.6875-0.40625v1.9531h-1.1094v-0.51562c-0.14844 0.21094-0.3125 0.36719-0.5 0.46875-0.1875 0.09375-0.41406 0.14062-0.67188 0.14062-0.35547 0-0.64844-0.10156-0.875-0.3125-0.21875-0.20703-0.32812-0.47656-0.32812-0.8125 0-0.40625 0.13281-0.70312 0.40625-0.89062 0.28125-0.1875 0.71875-0.28125 1.3125-0.28125h0.65625v-0.078125c0-0.17578-0.070313-0.30078-0.20312-0.375-0.13672-0.082031-0.35156-0.125-0.64062-0.125-0.24219 0-0.46484 0.027344-0.67188 0.078125-0.19922 0.042969-0.38281 0.10938-0.54688 0.20312v-0.84375c0.22656-0.050781 0.46094-0.09375 0.70312-0.125 0.23828-0.03125 0.47266-0.046875 0.70312-0.046875 0.625 0 1.0703 0.125 1.3438 0.375 0.28125 0.24219 0.42188 0.63672 0.42188 1.1875z"/>
  </symbol>
  <symbol id="b" overflow="visible">
   <path d="m1.7344-4.4062v0.96875h1.125v0.78125h-1.125v1.4688c0 0.15625 0.03125 0.26562 0.09375 0.32812 0.0625 0.054687 0.1875 0.078125 0.375 0.078125h0.5625v0.78125h-0.9375c-0.4375 0-0.75-0.085938-0.9375-0.26562-0.17969-0.1875-0.26562-0.49219-0.26562-0.92188v-1.4688h-0.54688v-0.78125h0.54688v-0.96875z"/>
  </symbol>
  <symbol id="k" overflow="visible">
   <path d="m2.8594-2.9375v-1.8281h1.1094v4.7656h-1.1094v-0.5c-0.14844 0.21094-0.3125 0.35938-0.5 0.45312-0.17969 0.09375-0.38672 0.14062-0.625 0.14062-0.42969 0-0.77734-0.16406-1.0469-0.5-0.27344-0.34375-0.40625-0.78125-0.40625-1.3125s0.13281-0.96094 0.40625-1.2969c0.26953-0.33203 0.61719-0.5 1.0469-0.5 0.23828 0 0.44531 0.046875 0.625 0.14062 0.1875 0.09375 0.35156 0.24219 0.5 0.4375zm-0.71875 2.2344c0.23828 0 0.41406-0.082031 0.53125-0.25 0.125-0.17578 0.1875-0.42969 0.1875-0.76562 0-0.32031-0.0625-0.56641-0.1875-0.73438-0.11719-0.17578-0.29297-0.26562-0.53125-0.26562-0.23047 0-0.40625 0.089844-0.53125 0.26562-0.125 0.16797-0.1875 0.41406-0.1875 0.73438 0 0.33594 0.0625 0.58984 0.1875 0.76562 0.125 0.16797 0.30078 0.25 0.53125 0.25z"/>
  </symbol>
  <symbol id="j" overflow="visible">
   <path d="m2.3594-0.70312c0.22656 0 0.40625-0.082031 0.53125-0.25 0.125-0.17578 0.1875-0.42969 0.1875-0.76562 0-0.32031-0.0625-0.56641-0.1875-0.73438-0.125-0.17578-0.30469-0.26562-0.53125-0.26562-0.24219 0-0.42188 0.089844-0.54688 0.26562-0.125 0.16797-0.1875 0.41406-0.1875 0.73438 0 0.32422 0.0625 0.57422 0.1875 0.75 0.125 0.17969 0.30469 0.26562 0.54688 0.26562zm-0.73438-2.2344c0.15625-0.19531 0.32031-0.34375 0.5-0.4375 0.1875-0.09375 0.39844-0.14062 0.64062-0.14062 0.41406 0 0.75781 0.16797 1.0312 0.5 0.28125 0.33594 0.42188 0.76562 0.42188 1.2969s-0.14062 0.96875-0.42188 1.3125c-0.27344 0.33594-0.61719 0.5-1.0312 0.5-0.24219 0-0.45312-0.046875-0.64062-0.14062-0.17969-0.10156-0.34375-0.25391-0.5-0.45312v0.5h-1.0938v-4.7656h1.0938z"/>
  </symbol>
  <symbol id="i" overflow="visible">
   <path d="m0.078125-3.4375h1.0938l0.92188 2.3281 0.79688-2.3281h1.0938l-1.4531 3.7656c-0.14844 0.38281-0.32031 0.64844-0.51562 0.79688-0.1875 0.15625-0.4375 0.23438-0.75 0.23438h-0.64062v-0.71875h0.34375c0.1875 0 0.32031-0.03125 0.40625-0.09375 0.082031-0.0625 0.14844-0.16797 0.20312-0.3125l0.03125-0.10938z"/>
  </symbol>
  <symbol id="h" overflow="visible">
   <path d="m2.7969 0.078125h-0.09375c-0.75 0-1.3398-0.20703-1.7656-0.625-0.41797-0.41406-0.625-0.99219-0.625-1.7344 0-0.73828 0.20703-1.3164 0.625-1.7344 0.41406-0.42578 0.99219-0.64062 1.7344-0.64062 0.73828 0 1.3164 0.21094 1.7344 0.625 0.41406 0.41797 0.625 1 0.625 1.75 0 0.51172-0.11719 0.95312-0.34375 1.3281-0.21875 0.375-0.53125 0.65625-0.9375 0.84375l0.92188 1.0312h-1.125zm-0.125-3.8906c-0.36719 0-0.64844 0.13672-0.84375 0.40625-0.19922 0.26172-0.29688 0.63672-0.29688 1.125 0 0.49219 0.09375 0.86719 0.28125 1.125 0.19531 0.26172 0.48438 0.39062 0.85938 0.39062 0.36328 0 0.64453-0.12891 0.84375-0.39062 0.19531-0.26953 0.29688-0.64453 0.29688-1.125 0-0.48828-0.10156-0.86328-0.29688-1.125-0.19922-0.26953-0.48047-0.40625-0.84375-0.40625z"/>
  </symbol>
  <symbol id="y" overflow="visible">
   <path d="m2.6719-3.8125c-0.36719 0-0.64844 0.13672-0.84375 0.40625-0.19922 0.26172-0.29688 0.63672-0.29688 1.125 0 0.48047 0.097656 0.85547 0.29688 1.125 0.19531 0.26172 0.47656 0.39062 0.84375 0.39062 0.36328 0 0.64453-0.12891 0.84375-0.39062 0.19531-0.26953 0.29688-0.64453 0.29688-1.125 0-0.48828-0.10156-0.86328-0.29688-1.125-0.19922-0.26953-0.48047-0.40625-0.84375-0.40625zm0-0.84375c0.72656 0 1.3008 0.21484 1.7188 0.64062 0.42578 0.41797 0.64062 0.99609 0.64062 1.7344 0 0.74219-0.21484 1.3242-0.64062 1.75-0.41797 0.41797-0.99219 0.625-1.7188 0.625-0.74219 0-1.3203-0.20703-1.7344-0.625-0.41797-0.42578-0.625-1.0078-0.625-1.75 0-0.73828 0.20703-1.3164 0.625-1.7344 0.41406-0.42578 0.99219-0.64062 1.7344-0.64062z"/>
  </symbol>
  <symbol id="g" overflow="visible">
   <path d="m0.57812-4.5781h1.1719v3.6875h2.0781v0.89062h-3.25z"/>
  </symbol>
  <symbol id="x" overflow="visible">
   <path d="m2.4062-2.8125c0.1875 0 0.32812-0.035156 0.42188-0.10938 0.10156-0.082031 0.15625-0.20703 0.15625-0.375 0-0.15625-0.054687-0.27344-0.15625-0.35938-0.09375-0.082031-0.23438-0.125-0.42188-0.125h-0.65625v0.96875zm0.046875 2.0156c0.23828 0 0.41406-0.050781 0.53125-0.15625 0.125-0.10156 0.1875-0.25391 0.1875-0.45312 0-0.19531-0.0625-0.34375-0.1875-0.4375-0.11719-0.10156-0.29297-0.15625-0.53125-0.15625h-0.70312v1.2031zm1.0938-1.6562c0.25 0.074219 0.44141 0.21094 0.57812 0.40625 0.14453 0.19922 0.21875 0.44531 0.21875 0.73438 0 0.4375-0.15234 0.76562-0.45312 0.98438-0.29297 0.21875-0.74609 0.32812-1.3594 0.32812h-1.9531v-4.5781h1.7656c0.63281 0 1.0938 0.10156 1.375 0.29688 0.28906 0.1875 0.4375 0.49219 0.4375 0.90625 0 0.23047-0.054688 0.42188-0.15625 0.57812-0.10547 0.15625-0.25781 0.27344-0.45312 0.34375z"/>
  </symbol>
  <symbol id="e" overflow="visible">
   <path d="m0.57812-4.5781h1.1719v4.5781h-1.1719z"/>
  </symbol>
  <symbol id="f" overflow="visible">
   <path d="m0.57812-4.5781h1.3125l1.6719 3.1406v-3.1406h1.125v4.5781h-1.3281l-1.6562-3.1406v3.1406h-1.125z"/>
  </symbol>
  <symbol id="w" overflow="visible">
   <path d="m3.7656-4.4375v0.96875c-0.25-0.11328-0.49609-0.19531-0.73438-0.25-0.24219-0.0625-0.46875-0.09375-0.6875-0.09375-0.28125 0-0.49219 0.042969-0.625 0.125-0.13672 0.074219-0.20312 0.19531-0.20312 0.35938 0 0.125 0.046875 0.22656 0.14062 0.29688 0.09375 0.0625 0.25781 0.12109 0.5 0.17188l0.5 0.09375c0.50781 0.10547 0.86719 0.26172 1.0781 0.46875 0.21875 0.21094 0.32812 0.50781 0.32812 0.89062 0 0.5-0.15234 0.875-0.45312 1.125-0.29297 0.25-0.75 0.375-1.375 0.375-0.28125 0-0.57422-0.03125-0.875-0.09375-0.29297-0.050781-0.58594-0.12891-0.875-0.23438v-1c0.28906 0.15625 0.57031 0.27734 0.84375 0.35938 0.28125 0.074219 0.54688 0.10938 0.79688 0.10938 0.25781 0 0.45703-0.039063 0.59375-0.125 0.13281-0.09375 0.20312-0.21875 0.20312-0.375 0-0.14453-0.046875-0.25391-0.14062-0.32812-0.09375-0.082031-0.27734-0.14844-0.54688-0.20312l-0.46875-0.10938c-0.46094-0.09375-0.79297-0.25-1-0.46875-0.21094-0.21875-0.3125-0.50391-0.3125-0.85938 0-0.45703 0.14453-0.80469 0.4375-1.0469 0.28906-0.25 0.71094-0.375 1.2656-0.375 0.25781 0 0.51953 0.023438 0.78125 0.0625 0.26953 0.03125 0.54688 0.085938 0.82812 0.15625z"/>
  </symbol>
  <symbol id="v" overflow="visible">
   <path d="m3.3594-0.82812h-1.8438l-0.29688 0.82812h-1.1875l1.7031-4.5781h1.4062l1.6875 4.5781h-1.1875zm-1.5625-0.85938h1.2656l-0.625-1.8125z"/>
  </symbol>
  <symbol id="u" overflow="visible">
   <path d="m0.57812-4.5781h1.5l1.0469 2.4531 1.0469-2.4531h1.5v4.5781h-1.125v-3.3438l-1.0469 2.4688h-0.75l-1.0469-2.4688v3.3438h-1.125z"/>
  </symbol>
  <symbol id="t" overflow="visible">
   <path d="m2.7812-4.7656v0.71875h-0.59375c-0.15625 0-0.26562 0.027344-0.32812 0.078125-0.0625 0.054688-0.09375 0.15234-0.09375 0.29688v0.23438h0.9375v0.78125h-0.9375v2.6562h-1.0938v-2.6562h-0.54688v-0.78125h0.54688v-0.23438c0-0.375 0.10156-0.64844 0.3125-0.82812 0.20703-0.17578 0.53125-0.26562 0.96875-0.26562z"/>
  </symbol>
  <symbol id="d" overflow="visible">
   <path d="m2.1562-2.7344c-0.24219 0-0.42969 0.089844-0.5625 0.26562-0.125 0.17969-0.1875 0.42969-0.1875 0.75 0 0.33594 0.0625 0.58984 0.1875 0.76562 0.13281 0.16797 0.32031 0.25 0.5625 0.25 0.23828 0 0.42188-0.082031 0.54688-0.25 0.13281-0.17578 0.20312-0.42969 0.20312-0.76562 0-0.32031-0.070312-0.57031-0.20312-0.75-0.125-0.17578-0.30859-0.26562-0.54688-0.26562zm0-0.78125c0.59375 0 1.0547 0.16406 1.3906 0.48438 0.33203 0.3125 0.5 0.75 0.5 1.3125s-0.16797 1.0078-0.5 1.3281c-0.33594 0.32422-0.79688 0.48438-1.3906 0.48438s-1.0586-0.16016-1.3906-0.48438c-0.33594-0.32031-0.5-0.76562-0.5-1.3281s0.16406-1 0.5-1.3125c0.33203-0.32031 0.79688-0.48438 1.3906-0.48438z"/>
  </symbol>
  <symbol id="s" overflow="visible">
   <path d="m3.7188-2.8594c0.13281-0.21875 0.29688-0.37891 0.48438-0.48438 0.19531-0.11328 0.41016-0.17188 0.64062-0.17188 0.38281 0 0.67969 0.125 0.89062 0.375 0.20703 0.24219 0.3125 0.58984 0.3125 1.0469v2.0938h-1.1094v-1.7969c0.007812-0.019531 0.015625-0.046875 0.015625-0.078125v-0.125c0-0.23828-0.039063-0.41016-0.10938-0.51562-0.074219-0.11328-0.1875-0.17188-0.34375-0.17188-0.21094 0-0.37109 0.089844-0.48438 0.26562-0.11719 0.16797-0.17188 0.41406-0.17188 0.73438v1.6875h-1.1094v-1.7969c0-0.375-0.039063-0.61328-0.10938-0.71875-0.0625-0.11328-0.17969-0.17188-0.34375-0.17188-0.21094 0-0.37109 0.089844-0.48438 0.26562-0.11719 0.16797-0.17188 0.41406-0.17188 0.73438v1.6875h-1.1094v-3.4375h1.1094v0.5c0.13281-0.1875 0.28906-0.32812 0.46875-0.42188 0.17578-0.10156 0.36719-0.15625 0.57812-0.15625 0.23828 0 0.44531 0.058594 0.625 0.17188 0.17578 0.11719 0.31641 0.27734 0.42188 0.48438z"/>
  </symbol>
  <symbol id="r" overflow="visible">
   <path d="m3.9844-2.0938v2.0938h-1.1094v-1.5938c0-0.30078-0.007812-0.50781-0.015625-0.625-0.011719-0.11328-0.039063-0.19531-0.078125-0.25-0.042969-0.0625-0.10156-0.11328-0.17188-0.15625-0.074219-0.039062-0.15625-0.0625-0.25-0.0625-0.23047 0-0.41406 0.089844-0.54688 0.26562-0.125 0.17969-0.1875 0.42188-0.1875 0.73438v1.6875h-1.0938v-4.7656h1.0938v1.8281c0.16406-0.19531 0.34375-0.34375 0.53125-0.4375s0.39062-0.14062 0.60938-0.14062c0.39453 0 0.69531 0.125 0.90625 0.375 0.20703 0.24219 0.3125 0.58984 0.3125 1.0469z"/>
  </symbol>
  <symbol id="q" overflow="visible">
   <path d="m0.48438-1.3438v-2.0938h1.1094v0.34375 0.70312 0.5625c0 0.28125 0.003906 0.48438 0.015625 0.60938 0.007813 0.11719 0.035156 0.19922 0.078125 0.25 0.039062 0.074219 0.097656 0.13281 0.17188 0.17188 0.070313 0.03125 0.15625 0.046875 0.25 0.046875 0.22656 0 0.40625-0.082031 0.53125-0.25 0.13281-0.17578 0.20312-0.42188 0.20312-0.73438v-1.7031h1.0938v3.4375h-1.0938v-0.5c-0.16797 0.19922-0.34375 0.35156-0.53125 0.45312-0.17969 0.09375-0.38281 0.14062-0.60938 0.14062-0.39844 0-0.69922-0.11719-0.90625-0.35938-0.21094-0.25-0.3125-0.60938-0.3125-1.0781z"/>
  </symbol>
  <symbol id="p" overflow="visible">
   <path d="m3.9844-2.0938v2.0938h-1.1094v-1.5938c0-0.30078-0.007812-0.50781-0.015625-0.625-0.011719-0.11328-0.039063-0.19531-0.078125-0.25-0.042969-0.0625-0.10156-0.11328-0.17188-0.15625-0.074219-0.039062-0.15625-0.0625-0.25-0.0625-0.23047 0-0.41406 0.089844-0.54688 0.26562-0.125 0.17969-0.1875 0.42188-0.1875 0.73438v1.6875h-1.0938v-3.4375h1.0938v0.5c0.16406-0.19531 0.34375-0.34375 0.53125-0.4375s0.39062-0.14062 0.60938-0.14062c0.39453 0 0.69531 0.125 0.90625 0.375 0.20703 0.24219 0.3125 0.58984 0.3125 1.0469z"/>
  </symbol>
  <symbol id="o" overflow="visible">
   <path d="m0.57812-4.5781h1.9531c0.58203 0 1.0312 0.13281 1.3438 0.39062 0.3125 0.26172 0.46875 0.63281 0.46875 1.1094 0 0.48047-0.15625 0.85156-0.46875 1.1094-0.3125 0.25-0.76172 0.375-1.3438 0.375h-0.78125v1.5938h-1.1719zm1.1719 0.85938v1.2812h0.65625c0.22656 0 0.40625-0.054688 0.53125-0.17188 0.125-0.11328 0.1875-0.26953 0.1875-0.46875 0-0.20703-0.0625-0.36328-0.1875-0.46875-0.125-0.11328-0.30469-0.17188-0.53125-0.17188z"/>
  </symbol>
  <symbol id="n" overflow="visible">
   <path d="m0.53125-3.4375h1.0938v3.375c0 0.45703-0.10938 0.80469-0.32812 1.0469-0.21875 0.25-0.54297 0.375-0.96875 0.375h-0.53125v-0.71875h0.1875c0.20703 0 0.34766-0.046875 0.42188-0.14062 0.082031-0.09375 0.125-0.28125 0.125-0.5625zm0-1.3281h1.0938v0.89062h-1.0938z"/>
  </symbol>
  <symbol id="m" overflow="visible">
   <path d="m3.2969-3.3281v0.89062c-0.14844-0.09375-0.29688-0.16406-0.45312-0.21875-0.14844-0.050781-0.29688-0.078125-0.45312-0.078125-0.3125 0-0.55859 0.089844-0.73438 0.26562-0.16797 0.17969-0.25 0.42969-0.25 0.75 0 0.32422 0.082031 0.57422 0.25 0.75 0.17578 0.17969 0.42188 0.26562 0.73438 0.26562 0.16406 0 0.32812-0.019531 0.48438-0.0625 0.15625-0.050781 0.29688-0.12891 0.42188-0.23438v0.90625c-0.16797 0.0625-0.33984 0.10938-0.51562 0.14062-0.17969 0.03125-0.35547 0.046875-0.53125 0.046875-0.625 0-1.1172-0.15625-1.4688-0.46875-0.34375-0.32031-0.51562-0.76953-0.51562-1.3438 0-0.5625 0.17188-1 0.51562-1.3125 0.35156-0.32031 0.84375-0.48438 1.4688-0.48438 0.17578 0 0.35156 0.015625 0.53125 0.046875 0.17578 0.03125 0.34766 0.078125 0.51562 0.14062z"/>
  </symbol>
 </defs>
 <g>
  <path d="m51.527 23.25h595.69c28.906 0 52.781 23.879 52.781 51.527 0 28.906-23.879 52.781-52.781 52.781h-595.69c-27.648 0-51.527-23.879-51.527-52.781 0-27.648 23.879-51.527 51.527-51.527z" fill-rule="evenodd"/>
  <path d="m51.527 233.12h595.69c28.906 0 52.781 22.621 52.781 51.527s-23.879 52.781-52.781 52.781h-595.69c-27.648 0-51.527-23.879-51.527-52.781 0-28.906 23.879-51.527 51.527-51.527z" fill-rule="evenodd"/>
  <path d="m51.527 443h595.69c28.906 0 52.781 22.621 52.781 51.527s-23.879 51.527-52.781 51.527h-595.69c-27.648 0-51.527-22.621-51.527-51.527s23.879-51.527 51.527-51.527z" fill-rule="evenodd"/>
  <use y="564.902344" xlink:href="#z"/>
  <use x="4.613281" y="564.902344" xlink:href="#c"/>
  <use x="7.710938" y="564.902344" xlink:href="#a"/>
  <use x="11.972656" y="564.902344" xlink:href="#l"/>
  <use x="16.210938" y="564.902344" xlink:href="#b"/>
  <use x="19.214844" y="564.902344" xlink:href="#a"/>
  <use x="23.476562" y="564.902344" xlink:href="#k"/>
  <use x="30.164062" y="564.902344" xlink:href="#j"/>
  <use x="34.660156" y="564.902344" xlink:href="#i"/>
  <use x="40.945312" y="564.902344" xlink:href="#h"/>
  <use x="46.285156" y="564.902344" xlink:href="#y"/>
  <use x="51.628906" y="564.902344" xlink:href="#g"/>
  <use x="55.632812" y="564.902344" xlink:href="#x"/>
  <use x="60.421875" y="564.902344" xlink:href="#e"/>
  <use x="62.761719" y="564.902344" xlink:href="#f"/>
  <use x="70.207031" y="564.902344" xlink:href="#w"/>
  <use x="74.730469" y="564.902344" xlink:href="#v"/>
  <use x="79.59375" y="564.902344" xlink:href="#g"/>
  <use x="83.597656" y="564.902344" xlink:href="#e"/>
  <use x="85.9375" y="564.902344" xlink:href="#e"/>
  <use x="88.273437" y="564.902344" xlink:href="#u"/>
  <use y="571.183594" xlink:href="#t"/>
  <use x="2.734375" y="571.183594" xlink:href="#c"/>
  <use x="5.832031" y="571.183594" xlink:href="#d"/>
  <use x="10.148438" y="571.183594" xlink:href="#s"/>
  <use x="18.882812" y="571.183594" xlink:href="#b"/>
  <use x="21.886719" y="571.183594" xlink:href="#r"/>
  <use x="26.363281" y="571.183594" xlink:href="#a"/>
  <use x="32.8125" y="571.183594" xlink:href="#f"/>
  <use x="38.070312" y="571.183594" xlink:href="#d"/>
  <use x="42.386719" y="571.183594" xlink:href="#q"/>
  <use x="46.859375" y="571.183594" xlink:href="#p"/>
  <use x="53.523438" y="571.183594" xlink:href="#o"/>
  <use x="58.125" y="571.183594" xlink:href="#c"/>
  <use x="61.226562" y="571.183594" xlink:href="#d"/>
  <use x="65.542969" y="571.183594" xlink:href="#n"/>
  <use x="67.695312" y="571.183594" xlink:href="#a"/>
  <use x="71.957031" y="571.183594" xlink:href="#m"/>
  <use x="75.683594" y="571.183594" xlink:href="#b"/>
 </g>
</svg>
